PathFileType	4	(X/Y/Z)	C:\Users\WrightLab\Desktop\Jo\P1.2boxCal1-Unnamed.trc
DataRate	CameraRate	NumFrames	NumMarkers	Units	OrigDataRate	OrigDataStartFrame	OrigNumFrames
100.00	100.00	       15	0	mm	100.00	104	       827
Frame#	Time	
		

104	1.030	-670.78363	349.80652	1000.63678	89.52087	323.07477	-464.63660	-190.94215	360.38342	1306.82202	-213.45041	354.91946	983.13269	-655.66742	354.21609	1314.30005	-413.37122	311.86469	-187.01570				51.26538	332.05023	-141.31036	-383.18118	306.41479	-523.54211	
105	1.040	-670.83417	349.54437	1000.86450	89.52024	323.11707	-464.53552	-190.98640	360.37848	1306.81543	-213.19083	355.05240	982.98737	-655.66272	354.31622	1314.01416	-413.54007	311.97256	-187.43874				50.93747	332.31863	-141.44711	-383.17126	306.40750	-523.54474	
106	1.050	-670.63385	349.72842	1000.80859	89.54632	323.10382	-464.57059	-190.90587	360.32587	1306.69592	-213.46025	354.91727	983.12048	-655.64941	354.23102	1314.30249	-413.49802	311.91885	-187.06232				51.26214	332.05002	-141.31535	-383.59021	306.70004	-523.89655	
107	1.060	-670.61517	349.73547	1000.81543	89.45332	323.01984	-464.75885	-190.95393	360.35699	1306.80750	-213.41933	355.05817	982.74213	-655.50934	354.52863	1314.07434	-413.41934	312.00601	-186.99026				51.06003	332.11606	-141.34061	-383.16983	306.40909	-523.54333	
108	1.070	-670.59717	349.83701	1000.37079	89.66951	323.15295	-464.46948	-190.97653	360.38242	1306.81641	-213.21341	355.06949	983.00305	-655.50616	354.43210	1314.36035	-413.54495	312.09064	-187.04350				51.03866	332.11533	-141.33714	-383.16733	306.41080	-523.54163	
109	1.080	-670.61908	349.72748	1000.81335	89.51846	323.09708	-464.58304	-190.98561	360.36761	1306.80994	-213.22047	355.05823	982.99524	-655.59467	354.47150	1314.71863	-413.58093	311.97150	-187.08728				51.04442	332.10260	-141.34967	-383.59698	306.69095	-523.90405	
110	1.090	-670.56445	349.88049	1000.97778	89.49930	323.03168	-464.73660	-190.69321	360.55493	1306.67078	-213.21529	355.06863	982.99554	-655.65955	354.02438	1313.94592	-413.49771	311.92221	-187.05949				51.25715	332.05194	-141.32663	-383.17569	306.41248	-523.54242	
111	1.100	-670.59174	349.71457	1000.80829	89.48641	323.01126	-464.78369	-190.92763	360.32712	1306.70874	-213.47739	354.92175	983.12714	-655.60071	354.31223	1313.97070	-413.56375	312.07574	-187.05226				50.92403	332.31818	-141.45934	-383.15659	306.41068	-523.53931	
112	1.110	-670.62714	349.72748	1000.80945	89.49082	323.14484	-464.46533	-190.61575	360.50879	1306.56592	-213.32463	355.22000	982.96198	-655.58209	354.58490	1314.33008	-413.40634	312.00720	-186.99129				51.00096	332.24594	-141.52325	-383.17285	306.41394	-523.54083	
113	1.120	-670.60907	349.72339	1000.81348	89.54025	323.09720	-464.58560	-190.95982	360.38141	1306.82263	-213.21227	355.05334	982.98096	-655.58704	354.60291	1314.33618	-413.56012	312.08527	-187.04517				50.90526	332.31934	-141.47305	-383.19098	306.41492	-523.54425	
114	1.130	-670.82037	349.63220	1000.41797	89.50485	323.09924	-464.57605	-190.89284	360.32040	1306.69946	-213.22034	355.06821	982.98676	-655.59637	354.57761	1314.32544	-413.55203	312.07251	-187.05373				51.07251	332.42850	-141.58748	-383.16284	306.39587	-523.55054	
115	1.140	-670.79578	349.65506	1000.42853	89.54694	323.18359	-464.38022	-190.99419	360.36234	1306.79578	-213.22633	355.04623	982.98816	-655.76917	354.34515	1314.25513	-413.56049	312.08481	-187.04691				50.86604	332.47061	-141.59660	-383.49124	306.34955	-523.90912	
116	1.150	-670.59222	349.85110	1000.38043	89.69131	323.05670	-464.70218	-190.99278	360.40942	1306.82178	-213.21175	355.08417	982.99786	-655.58795	354.58905	1314.33154	-413.55734	312.08484	-187.04436				50.87103	332.48053	-141.60449	-383.17587	306.42737	-523.53259	
117	1.160	-670.53894	349.99969	1000.54340	89.69740	323.06000	-464.69513	-190.96603	360.38290	1306.81287	-213.23892	355.06027	982.98663	-655.61096	354.22321	1314.36768	-413.36469	311.87732	-187.00919				50.87079	332.48413	-141.62096	-383.16214	306.41013	-523.54095	
118	1.170	-670.81421	349.65448	1000.42816	89.63200	323.12708	-464.52634	-190.69781	360.54169	1306.67102	-213.21297	355.08163	982.97968	-655.58899	354.54987	1314.32019	-413.55685	312.07474	-187.05246				51.07182	332.43951	-141.57651	-383.17233	306.40808	-523.54456	
